PathFileType	4	(X/Y/Z)	Patient4_TMGait_0pt4_01_left_42.trc.trc
DataRate	CameraRate	NumFrames	NumMarkers	Units	OrigDataRate	OrigDataStartFrame	OrigNumFrames
78.212290502793	78.212290502793	4	33	mm	78.212290502793	106	       141
Frame#	Time	Sacral			L.Shoulder			Chest			R.Shoulder			Neck			R.ASIS			L.ASIS			R.Thigh.Superior			R.Thigh.Lateral			R.Thigh.Inferior			R.Patella			L.Thigh.Superior			L.Thigh.Lateral			L.Thigh.Inferior			L.Patella			L.Shank.Superior			L.Shank.Lateral			L.Shank.Inferior			R.Shank.Superior			R.Shank.Lateral			R.Shank.Inferior			R.Heel			R.Midfoot.Superior			R.Midfoot.Lateral			R.Toe			L.Heel			L.Midfoot.Lateral			L.Midfoot.Superior			L.Toe			L.Elbow			L.Wrist			R.Elbow			R.Wrist			
		X1	Y1	Z1	X2	Y2	Z2	X3	Y3	Z3	X4	Y4	Z4	X5	Y5	Z5	X6	Y6	Z6	X7	Y7	Z7	X8	Y8	Z8	X9	Y9	Z9	X10	Y10	Z10	X11	Y11	Z11	X12	Y12	Z12	X13	Y13	Z13	X14	Y14	Z14	X15	Y15	Z15	X16	Y16	Z16	X17	Y17	Z17	X18	Y18	Z18	X19	Y19	Z19	X20	Y20	Z20	X21	Y21	Z21	X22	Y22	Z22	X23	Y23	Z23	X24	Y24	Z24	X25	Y25	Z25	X26	Y26	Z26	X27	Y27	Z27	X28	Y28	Z28	X29	Y29	Z29	X30	Y30	Z30	X31	Y31	Z31	X32	Y32	Z32	X33	Y33	Z33	

106	54.182500000000	857.177153650807	1006.751305004700	539.465886407976	1030.669908712791	1430.616161708266	342.500501221095	1141.538496569546	1367.036144224575	499.958091854745	1068.307856577266	1444.383558188725	676.758857535676	1020.620343558025	1496.323919861404	497.710607258289	1091.669306540840	943.702390550202	645.865442374450	1064.357430356919	964.434573470084	372.841921501930	1121.423860823530	738.599154026629	613.607582967268	1036.471735843273	630.734676700368	673.323005878502	1110.599079680431	577.093425453109	592.353505849972	1105.653448583360	488.681579927830	597.115033542114	1147.329862568594	784.092304330879	391.059520933215	1101.306884616816	659.839004321953	306.690036846489	1209.559177668457	600.610942810410	360.094372937920	1231.281105160225	522.016405058072	349.139470780017	1188.148416011826	448.455303200978	336.637261371205	1072.899494024768	358.228846671582	287.156819316468	1117.853787388042	229.745068593194	328.960444185617	1071.310246311605	400.830501460515	600.440795690036	992.526301644729	300.439163525868	659.037643101758	1027.857146750721	205.058428111583	592.367415836339	883.107428166278	45.208218908374	557.366898132886	1055.677020325155	96.632539905071	594.793824379142	966.336827726805	37.461420995348	632.151416916363	1174.844852379924	40.331023019681	621.507081342871	974.107590572798	92.797386759125	368.091858328799	1037.807164053691	78.573901167772	281.286399303869	1133.120914562098	124.858166020874	298.796867633112	1244.942829682136	54.406203874508	256.444844862615	980.967844712617	1074.993218606154	243.695931236557	1028.275685041080	820.346148220893	219.797658284106	1125.438660144618	1109.000911428607	817.462023121648	1347.130955944323	981.496160262784	783.004889260229	
107	54.195285714286	856.158608622695	1007.493869477712	540.004972214427	1029.641907225855	1431.178711846489	342.867411418357	1141.542134584875	1366.786074000728	499.274274132345	1070.001965375637	1444.016573686687	676.824701907489	1020.895234593272	1496.477766167747	498.149668758701	1091.021888143768	943.471654691578	644.766692259423	1062.349009752611	964.636196034009	371.906598700003	1118.323826806136	737.895244875883	612.302895919014	1032.664928626244	630.818578365723	672.833336061371	1105.418563144382	576.478207526530	591.334127510489	1099.649556869611	488.616300950510	596.113573386880	1144.219790514877	783.970700781127	390.501342013535	1098.449531339393	659.948015962919	305.761951620186	1206.013596323627	600.582862595849	360.328630988873	1229.017229963115	523.974725904590	349.296586113837	1189.511451668988	450.245044853270	336.366416433416	1080.531706682833	353.792461510063	284.992304967013	1132.181118454935	227.772608365881	327.454007394565	1065.522510255446	400.777653993187	599.830575662628	987.086668889144	300.307954491966	658.697553963306	1022.484566503719	204.974975022149	592.067158539164	877.912763984030	44.923417457613	557.462144867735	1050.450427628738	96.606195180360	594.742685536677	961.117496719404	37.405820400342	632.211605111145	1169.630799080897	40.451138952174	621.535574814593	996.204972143381	82.559759237729	364.655666326278	1061.831006337042	72.138970918082	278.727735224217	1154.146887599721	123.624203240801	297.408291733445	1270.303119756467	59.576521365240	256.614333064300	972.553284888973	1076.739952508397	244.203744590049	1014.198053752912	821.291610863915	219.507663448043	1132.369180919209	1109.346580473891	816.192196206299	1357.679860709577	989.605267341834	779.039111606358	
108	54.208071428571	855.266919699914	1008.174375410385	540.419549630460	1028.569633926200	1431.686938279950	343.069631502614	1141.523254777323	1366.537162934231	498.410072346116	1071.652873562469	1443.624775930775	676.690105388121	1021.137857767613	1496.580121482540	498.416863053046	1090.446421415209	943.207478089993	643.536498281427	1060.414738178874	964.796486774626	370.860052290355	1115.201179094526	737.127778244969	610.898652535226	1028.768167549590	630.904123916095	672.259372819766	1100.046274826540	575.841308511571	590.221416120845	1093.427854650970	488.567102700039	595.006209530514	1140.982131865138	783.542081758616	390.040732367951	1095.553333070316	659.979377813021	304.644895198416	1202.141431165618	600.189112266512	360.643456605420	1226.310185316365	525.615221372957	349.570703606649	1190.387532091190	451.953981301990	336.237723850978	1088.022777118530	349.751590533401	282.709648747956	1145.826200956170	226.539401309136	326.193514789124	1059.573041435068	400.749994028286	599.145805820695	981.551493252218	300.176901335699	658.335984717730	1017.026210217639	204.901853091411	591.724439270810	872.699941473482	44.613785798398	557.546913277466	1045.195548653150	96.583803349539	594.676579680523	955.885525198130	37.345335346143	632.271330224129	1164.406329996255	40.614870385548	621.545736241782	1017.607737845664	73.941443523081	361.116580561075	1085.348823699170	66.904293487924	276.461883933946	1174.433642647008	123.241275309765	296.556319565904	1294.541033091713	65.325314567564	258.166073058785	964.365694233831	1078.519808265761	244.665925103117	1000.793159723707	822.470581519457	219.094037503656	1138.992325707776	1109.648142496369	814.578555775235	1367.399517718163	997.313996587327	774.737597217194	
109	54.220857142857	854.519781826507	1008.786675882724	540.720589298291	1027.460659597838	1432.137432411981	343.094552160776	1141.481618830323	1366.294491518146	497.362505666365	1073.253761768923	1443.226224031994	676.344878987834	1021.348405812999	1496.633137208913	498.512773384002	1089.962218137902	942.918093613552	642.191900248752	1058.554684053716	964.916815497604	369.708755379375	1112.085792308903	736.307945078068	609.429228392776	1024.806187351913	631.000034931126	671.620754600997	1094.530120459527	575.195943395483	589.054762235069	1087.037176426507	488.531875890170	593.839737318138	1137.704806383382	782.878219206891	389.647121146113	1092.689055432313	659.956442536560	303.369652713019	1198.094090460032	599.501537792656	360.946492816494	1223.272177777735	526.947200401664	349.895582187187	1190.824409613586	453.570139187892	336.188716337773	1095.182591573037	346.178075940960	280.439842051385	1158.560458087401	226.007731042730	325.196582670343	1053.500540977977	400.756592714023	598.420597740965	975.937205900299	300.063505895291	657.976508648512	1011.493222675390	204.849265906139	591.363297764214	867.469937540764	44.299924660294	557.619378721738	1039.915286926928	96.566988589761	594.602274201882	950.644452639320	37.282253823515	632.331281290130	1159.172784735725	40.819306122084	621.537890943504	1037.916566615871	66.963114795117	357.717530812439	1107.863441978267	62.844847038749	274.618023762722	1193.609170499655	123.625016623303	296.219865427419	1317.235738413588	71.453814212119	260.875868068815	956.517258541504	1080.294433900988	245.066896413280	988.100514960233	823.807240889379	218.551214640784	1145.255992679294	1109.908928347682	812.640886912699	1376.275277920023	1004.595798108255	770.116630238346	
